Coordinates
version=1
nRows=29
nColumns=22
inDegrees=yes

Units are S.I. units (second, meters, Newtons, ...)
If the header above contains a line with 'inDegrees', this indicates whether rotational values are in degrees (yes) or radians (no).

endheader
time	pelvis_tilt	pelvis_list	pelvis_rotation	pelvis_tx	pelvis_ty	pelvis_tz	hip_flexion_r	hip_adduction_r	hip_rotation_r	knee_angle_r	ankle_angle_r	subtalar_angle_r	hip_flexion_l	hip_adduction_l	hip_rotation_l	knee_angle_l	ankle_angle_l	subtalar_angle_l	lumbar_extension	lumbar_bending	lumbar_rotation
      2.90000000	      2.02640729	      0.61640999	     -1.39901459	     -0.25904130	      1.07142201	     -0.28163347	      1.76711302	      2.45634515	     -4.51579384	    -22.66456743	     16.48802734	     -8.43246986	     21.42232345	     -3.82908314	     -7.60997266	    -27.17912183	      5.97408530	      4.12979377	    -12.05009952	     -2.82641266	     -4.18582299
      2.91000000	      2.19655862	      0.34705348	     -1.30767707	     -0.26532637	      1.07336638	     -0.28094154	      1.55504497	      2.78637517	     -4.68511616	    -21.90380787	     15.79577553	     -8.30736283	     21.25084357	     -4.36368377	     -7.83537319	    -29.05024124	      6.38186872	      3.21510122	    -12.01709651	     -2.62823779	     -4.11992723
      2.92000000	      2.33981740	      0.09756236	     -1.22790942	     -0.27158612	      1.07519699	     -0.28039698	      1.36165072	      3.08493594	     -4.84181625	    -21.12930965	     15.12395907	     -8.17290194	     21.06415672	     -4.80465873	     -7.74714514	    -30.93439741	      6.72758887	      2.51643091	    -11.95395777	     -2.43924073	     -4.03920761
      2.93000000	      2.44480235	     -0.11001817	     -1.16273077	     -0.27781985	      1.07688342	     -0.27999929	      1.21285613	      3.32421811	     -5.02204051	    -20.36463597	     14.46673909	     -8.01684502	     20.86412089	     -5.10960565	     -7.35162490	    -32.79547506	      7.01263497	      1.93695911	    -11.84693044	     -2.29218460	     -3.91297763
      2.94000000	      2.54099537	     -0.30026729	     -1.12456484	     -0.28405671	      1.07843835	     -0.27972690	      1.07429176	      3.53779440	     -5.16856291	    -19.60331548	     13.84769659	     -7.89485959	     20.63297433	     -5.31781344	     -6.73749517	    -34.64701960	      7.24769193	      1.66256604	    -11.73658596	     -2.15274949	     -3.77334103
      2.95000000	      2.60410810	     -0.45449991	     -1.09291025	     -0.29030918	      1.07981375	     -0.27962669	      0.98844998	      3.70012067	     -5.32937113	    -18.87585874	     13.25167659	     -7.75351199	     20.39076192	     -5.39601863	     -5.92475319	    -36.45847609	      7.41820196	      1.46404101	    -11.59619785	     -2.03827190	     -3.63751664
      2.96000000	      2.64398365	     -0.58785173	     -1.07901018	     -0.29658768	      1.08100699	     -0.27966209	      0.94764949	      3.83124168	     -5.47991632	    -18.18715062	     12.70196982	     -7.60792530	     20.12542380	     -5.38037675	     -4.99800080	    -38.22229585	      7.53879409	      1.38675431	    -11.43904284	     -1.93621865	     -3.49272097
      2.97000000	      2.66865074	     -0.70870943	     -1.08646386	     -0.30288426	      1.08202841	     -0.27981248	      0.94216287	      3.94262548	     -5.61011045	    -17.53511883	     12.18198785	     -7.47200535	     19.82422553	     -5.30318043	     -4.04213672	    -39.92664268	      7.62033903	      1.42754959	    -11.27222905	     -1.83621753	     -3.34271019
      2.98000000	      2.67390558	     -0.82386203	     -1.10395396	     -0.30922624	      1.08286120	     -0.28007604	      0.98532567	      4.04298691	     -5.71539850	    -16.93565890	     11.70303159	     -7.33265226	     19.49548489	     -5.18606265	     -3.09563353	    -41.56607717	      7.68915816	      1.59828769	    -11.09578899	     -1.72962684	     -3.20767698
      2.99000000	      2.67908078	     -0.95030656	     -1.13981438	     -0.31555903	      1.08355597	     -0.28039368	      1.03895096	      4.15333703	     -5.80225281	    -16.35772852	     11.22522596	     -7.23389725	     19.11093613	     -5.08134941	     -2.23981487	    -43.12491906	      7.71605891	      1.79624458	    -10.92446346	     -1.60719815	     -3.06389178
      3.00000000	      2.68358337	     -1.09278593	     -1.19235772	     -0.32190829	      1.08410434	     -0.28074229	      1.11893632	      4.27946425	     -5.87539862	    -15.82883612	     10.77380928	     -7.16309268	     18.67429914	     -5.00602780	     -1.48746964	    -44.59970130	      7.71343161	      1.98276786	    -10.75925669	     -1.46645146	     -2.92088019
      3.01000000	      2.67791079	     -1.25909943	     -1.23655475	     -0.32828371	      1.08449453	     -0.28115618	      1.23084372	      4.43012756	     -5.93004771	    -15.34175706	     10.34260134	     -7.09766391	     18.20483041	     -4.97088441	     -0.82281251	    -45.99141475	      7.72017061	      2.21729508	    -10.59350879	     -1.29177399	     -2.82108233
      3.02000000	      2.65822754	     -1.43851988	     -1.27410998	     -0.33465600	      1.08474299	     -0.28161649	      1.37465630	      4.59504543	     -5.96417224	    -14.89045258	      9.92594837	     -7.03100177	     17.70302028	     -4.97510164	     -0.25963501	    -47.28901932	      7.73073480	      2.54001183	    -10.41525206	     -1.09782866	     -2.76523226
      3.03000000	      2.65073728	     -1.66736932	     -1.30877661	     -0.34103665	      1.08488447	     -0.28208212	      1.51762958	      4.81279597	     -6.00052057	    -14.46354074	      9.51700526	     -6.99236342	     17.14805642	     -5.07122596	      0.19116626	    -48.49681864	      7.69674399	      2.70650355	    -10.25970922	     -0.85070855	     -2.72768755
      3.04000000	      2.63567570	     -1.92216840	     -1.32124272	     -0.34743137	      1.08490436	     -0.28259416	      1.68213494	      5.05759329	     -6.03852250	    -14.06356258	      9.11672566	     -6.94927939	     16.56530592	     -5.22234130	      0.56927149	    -49.60968340	      7.65656454	      2.91132465	    -10.10214581	     -0.57189408	     -2.75493916
      3.05000000	      2.61293068	     -2.19952587	     -1.31355691	     -0.35383287	      1.08481369	     -0.28314179	      1.86213237	      5.32536599	     -6.09076301	    -13.67712399	      8.73169883	     -6.89776756	     15.95452519	     -5.42417675	      0.88513465	    -50.62067679	      7.59959107	      3.14811158	     -9.94098318	     -0.26960947	     -2.83291555
      3.06000000	      2.58508168	     -2.49682158	     -1.28630592	     -0.36025299	      1.08462821	     -0.28373423	      2.05534347	      5.61281726	     -6.15646378	    -13.30307926	      8.35418234	     -6.83819002	     15.31653320	     -5.67081542	      1.14498931	    -51.52719964	      7.49835968	      3.38521874	     -9.77986056	      0.05376303	     -2.96544513
      3.07000000	      2.55444444	     -2.80515584	     -1.23750481	     -0.36670218	      1.08435878	     -0.28439186	      2.26704067	      5.90804849	     -6.23927796	    -12.95577085	      7.99592164	     -6.76220641	     14.64832677	     -5.94091348	      1.37489698	    -52.32125577	      7.36163573	      3.65343512	     -9.62205062	      0.39044127	     -3.14520254
      3.08000000	      2.52406271	     -3.11013676	     -1.17114971	     -0.37318001	      1.08402611	     -0.28512366	      2.49139673	      6.19278162	     -6.36356287	    -12.62665444	      7.67072052	     -6.63257103	     13.94791555	     -6.21766935	      1.57110310	    -52.99718367	      7.17170231	      4.06923747	     -9.46862527	      0.72232999	     -3.36146032
      3.09000000	      2.47880558	     -3.42510473	     -1.09023102	     -0.37970631	      1.08361057	     -0.28592456	      2.73514478	      6.48751057	     -6.47030747	    -12.29642033	      7.34070210	     -6.53924754	     13.23298912	     -6.50522469	      1.75095113	    -53.55286734	      6.94366576	      4.33555448	     -9.30532610	      1.06671057	     -3.62334013
      3.10000000	      2.44354840	     -3.71650678	     -1.00020187	     -0.38627965	      1.08317067	     -0.28681911	      2.99356340	      6.74541299	     -6.62759489	    -12.00537968	      7.06554886	     -6.34189099	     12.47251486	     -6.75859661	      1.92344147	    -53.97408732	      6.66017542	      4.89563758	     -9.15939909	      1.38401583	     -3.89547567
      3.11000000	      2.38976817	     -4.01905593	     -0.89196372	     -0.39293615	      1.08265776	     -0.28780930	      3.27835762	      7.01218648	     -6.78116161	    -11.71207456	      6.76939869	     -6.18823750	     11.71108681	     -7.00763325	      2.10728016	    -54.27424504	      6.34475894	      5.34329763	     -9.00332043	      1.71694162	     -4.21235149
      3.12000000	      2.34435335	     -4.27982496	     -0.80043471	     -0.39968159	      1.08213390	     -0.28887604	      3.59307925	      7.22155077	     -6.96408518	    -11.48047515	      6.53903777	     -5.91821845	     10.90560999	     -7.19164231	      2.28160445	    -54.43264714	      5.96520801	      6.13931385	     -8.86871866	      1.99966254	     -4.49313803
      3.13000000	      2.28296736	     -4.53444880	     -0.69947524	     -0.40651744	      1.08155543	     -0.29004921	      3.93559360	      7.41836822	     -7.14586900	    -11.25391743	      6.29510073	     -5.65962728	     10.09769310	     -7.34157002	      2.47556823	    -54.46321808	      5.54135694	      6.94579469	     -8.72660294	      2.28025552	     -4.79929747
      3.14000000	      2.20981701	     -4.76196301	     -0.60732550	     -0.41345597	      1.08093942	     -0.29130105	      4.30625195	      7.58003383	     -7.32508111	    -11.04157387	      6.05714639	     -5.37800545	      9.27842258	     -7.43545753	      2.67412589	    -54.35446924	      5.05861149	      7.89361260	     -8.58372666	      2.52919244	     -5.09530917
      3.15000000	      2.12679976	     -4.96659919	     -0.52080017	     -0.42051478	      1.08028553	     -0.29264084	      4.70618675	      7.71037485	     -7.49923304	    -10.84758906	      5.80702587	     -5.10429573	      8.45039447	     -7.47306306	      2.88874576	    -54.10737648	      4.51850580	      8.95291492	     -8.44473847	      2.75244179	     -5.38351101
      3.16000000	      2.03612614	     -5.14426084	     -0.43887763	     -0.42771878	      1.07959334	     -0.29407284	      5.13329912	      7.80546199	     -7.66763000	    -10.67084797	      5.53072724	     -4.86842003	      7.61721818	     -7.44827793	      3.12162188	    -53.72016025	      3.92614164	     10.09927448	     -8.31579362	      2.94644623	     -5.66372173
      3.17000000	      1.93414459	     -5.29208581	     -0.37078765	     -0.43506436	      1.07885742	     -0.29557436	      5.58555203	      7.86543169	     -7.81143220	    -10.50142966	      5.22093462	     -4.68974999	      6.78254790	     -7.36521948	      3.35582772	    -53.18618592	      3.29861440	     11.33187037	     -8.19136480	      3.10521404	     -5.92423689
      3.18000000	      1.82107928	     -5.41790988	     -0.31462199	     -0.44256063	      1.07806579	     -0.29714236	      6.06131387	      7.89941044	     -7.93332717	    -10.33544247	      4.86286389	     -4.59114848	      5.95066603	     -7.23566797	      3.59082518	    -52.50333444	      2.67471961	     12.58892614	     -8.07242621	      3.23745439	     -6.16794080
